<?xml version="1.0" encoding="utf-8"?>
<!-- Generator: Adobe Illustrator 24.1.1, SVG Export Plug-In . SVG Version: 6.00 Build 0)  -->
<svg version="1.1" id="Layer_1" xmlns="http://www.w3.org/2000/svg" xmlns:xlink="http://www.w3.org/1999/xlink" x="0px" y="0px"
	 viewBox="0 0 750.1 188.2" style="enable-background:new 0 0 750.1 188.2;" xml:space="preserve">
<style type="text/css">
	.st0{fill:#FF5100;}
	.st1{fill:#FFFFFF;}
	.st2{fill:#1D1934;}
</style>
<g>
	<g>
		<g>
			<g>
				<polygon class="st0" points="183.5,59.3 237.3,64.2 277.2,80.7 294,98 302.9,122.4 294,153 268.7,171.8 188,171.8 188,128.7 
					173.7,67.9 				"/>
			</g>
			<g>
				<rect x="183.5" y="98.5" class="st1" width="115" height="39.8"/>
			</g>
			<g>
				<polygon class="st2" points="187.9,149.7 187.9,149.7 187.9,137.1 				"/>
			</g>
			<g>
				<rect x="181.6" y="143.4" class="st2" width="12.6" height="0.6"/>
			</g>
			<g>
				<path class="st1" d="M253.7,180.5H144.1v-12.6h36.1c0.9-7.9,1.4-15.8,1.4-23.8l0-0.6c-0.1-26.7-5.2-52.5-15.2-76.8
					c-6.8,0.7-13.7,1.8-20.4,3.2c-21.1,4.4-41.4,12.1-60.1,23l-6.3-10.9c19.9-11.5,41.4-19.7,63.8-24.4c5.8-1.2,11.6-2.2,17.5-2.9
					c-4.3-8.7-9.2-17.1-14.6-25.1l10.4-7.1c6.7,9.8,12.6,20.2,17.6,31c4.5-0.3,9-0.4,13.6-0.4c33.5,0,60.3,5.2,81.9,15.9
					c14.4,7.1,26.5,18.8,33.2,32c7.8,15.3,8.3,31.5,1.4,46.8l-0.7,1.5c-5.6,11.4-14.9,20.7-26.3,26.1
					C270.1,178.6,261.9,180.5,253.7,180.5z M192.9,167.9h60.8c6.3,0,12.6-1.4,18.3-4.1c8.8-4.2,16-11.4,20.3-20.2l0.6-1.2
					c11.6-25.6-5.6-50.7-28.7-62.2c-19.8-9.8-44.7-14.6-76.2-14.6c-2.8,0-5.5,0.1-8.3,0.2c9.6,24.7,14.5,50.8,14.6,77.7l0,0.7
					C194.2,152,193.8,160,192.9,167.9z"/>
			</g>
			<g>
				
					<rect x="20.3" y="118.7" transform="matrix(0.9245 -0.3811 0.3811 0.9245 -44.9725 22.93)" class="st1" width="30.3" height="12.6"/>
			</g>
			<g>
				<path class="st0" d="M152.1,38.5c-1.8-3-3.8-6.1-5.8-9l10.4-7.1c2.1,3.1,4.2,6.3,6.1,9.5L152.1,38.5z"/>
			</g>
			<g>
				<path class="st1" d="M150.4,180.5h-12.6v-6.3c0-13.5-10.9-24.4-24.4-24.4H38.7L24,116.6l11.5-5.1l11.5,25.7h66.5
					c20.4,0,37,16.6,37,37V180.5z"/>
			</g>
			<g>
				<path class="st1" d="M120.8,44.1c-3.9,0-6.9-0.9-7.9-3.2c-3.2-7.9,21.2-20.4,34.6-25.9c13.4-5.5,39.5-13.9,42.8-6
					c2.5,6.2-11.8,14.8-20.6,19.4l-1.7-3.3c15.7-8.2,19.3-13.7,18.9-14.7c-0.8-2-14.7-1.6-38,8c-23.3,9.6-33.4,19.1-32.6,21.1
					c0.4,1.1,6.9,2.4,23.8-2.9l1.1,3.5C135.4,41.9,127,44.1,120.8,44.1z"/>
			</g>
		</g>
	</g>
	<g>
		<g>
			<g>
				<g>
					<path class="st1" d="M374.8,29.8l0.2,11.9v27.2l-0.2,11.9c0,0.8-0.5,1.3-1.3,1.3h-4.8c-0.7,0-1.3-0.5-1.3-1.3l-0.2-11.9v-8.8
						l-9.8,0.2h-3.5l-8.8-0.2v8.8l-0.2,11.9c-0.1,0.8-0.6,1.3-1.3,1.3h-4.8c-0.7,0-1.3-0.5-1.3-1.3l-0.2-11.9V41.7l0.2-11.9
						c0-0.7,0.5-1.3,1.3-1.3h4.8c0.7,0,1.3,0.6,1.3,1.3l0.2,11.9v11.4l8.8-0.2h3.5l9.8,0.2V41.7l0.2-11.9c0.1-0.7,0.6-1.3,1.3-1.3
						h4.8C374.2,28.5,374.8,29.2,374.8,29.8z"/>
				</g>
				<g>
					<path class="st1" d="M373.5,83h-4.8c-1.2,0-2.1-0.9-2.2-2.1l0-0.1l-0.2-11.9l0-7.9l-8.9,0.2l-3.5,0L346,61v7.9l-0.2,11.9
						c-0.1,1.2-1.1,2.1-2.2,2.1h-4.8c-1.2,0-2.2-0.9-2.2-2.2l-0.2-11.8l0-27.2l0.2-11.9c0-1.2,1-2.2,2.2-2.2h4.8
						c1.1,0,2.1,0.9,2.2,2.1l0,0.1l0.2,11.9l0,10.5l7.9-0.1l3.5,0l8.9,0.2V41.7l0.2-12c0.1-1.2,1.1-2.1,2.2-2.1h4.8
						c1.2,0,2.1,1,2.2,2.2l0.2,11.8l0,27.2l-0.2,11.9C375.7,82,374.8,83,373.5,83z M368.3,80.7c0,0.2,0.2,0.5,0.4,0.5h4.8
						c0.2,0,0.4-0.2,0.4-0.4l0.2-11.9l0-27.2l-0.2-11.9c0-0.2-0.2-0.4-0.4-0.4h-4.8c-0.2,0-0.4,0.2-0.4,0.5l-0.2,11.8l0,12.4
						l-10.7-0.3l-3.5,0l-9.7,0.2V41.7L344,29.9c0-0.2-0.2-0.5-0.4-0.5h-4.8c-0.2,0-0.4,0.2-0.4,0.4l-0.2,11.9l0,27.2l0.2,11.8
						c0,0.3,0.1,0.4,0.4,0.4h4.8c0.3,0,0.4-0.2,0.4-0.5l0.2-11.8l0-9.7l9.7,0.3l3.5,0l10.7-0.3v9.7L368.3,80.7z"/>
				</g>
			</g>
			<g>
				<g>
					<path class="st1" d="M424,62c-0.1,2.1-2.4,3.8-4.6,3.8h-24c-0.5,0-0.8,0.4-0.7,0.8c1.5,5.9,6.5,8.1,11.9,8.1
						c3.1,0,6.7-1.5,9.2-3.7c0.5-0.5,1.5-0.5,2,0l3.1,3c0.6,0.5,0.6,1.5,0,2.1c-4.6,4.4-9.6,6-14.6,6c-12.1,0-21.2-9.8-19.5-21.9
						c1.4-10.6,11-16.8,21.8-15.8c8.8,0.9,15.4,9.2,15.4,15.8C424.1,60.2,424.1,61,424,62z M395.3,59.2c-0.2,0.5,0.2,1,0.7,1h20.1
						c0.5,0,0.9-0.5,0.7-1c-1.2-3.9-4-8.3-10.3-8.3C400.7,50.9,396.4,54.9,395.3,59.2z"/>
				</g>
				<g>
					<path class="st1" d="M406.4,83c-6.2,0-11.9-2.5-15.8-6.9c-3.8-4.3-5.4-10-4.6-16c1.4-10.7,11-17.7,22.8-16.5
						c9.3,1,16.2,9.6,16.2,16.6c0,0,0,0.8-0.1,1.8c-0.1,2.8-3,4.7-5.5,4.7h-23.7c1.7,6.2,7.6,7.2,11,7.2c2.8,0,6.3-1.4,8.7-3.4
						c0.9-0.8,2.4-0.8,3.3,0l3.1,3c0.5,0.4,0.7,1,0.7,1.7c0,0.7-0.3,1.3-0.8,1.7C417.3,80.9,412.2,83,406.4,83z M406.3,45.2
						c-9.7,0-17.2,6.1-18.5,15.1c-0.7,5.4,0.7,10.6,4.2,14.5c3.5,4,8.8,6.3,14.4,6.3c5.4,0,9.9-1.9,14-5.7c0.2-0.2,0.2-0.3,0.2-0.4
						c0-0.1,0-0.2-0.2-0.3l-3.2-3c-0.2-0.2-0.6-0.2-0.8,0c-2.7,2.4-6.6,3.9-9.9,3.9c-6.7,0-11.4-3.2-12.8-8.8l0-0.1
						c-0.1-0.5,0-1,0.3-1.3c0.3-0.4,0.8-0.6,1.2-0.6h24c1.7,0,3.7-1.3,3.7-3l0,0c0.1-0.9,0.1-1.7,0.1-1.7c0-6.2-6.4-14-14.6-14.9
						C407.8,45.3,407,45.2,406.3,45.2z M416.1,61.1H396c-0.5,0-1-0.2-1.3-0.7c-0.3-0.4-0.4-1-0.2-1.5c1.2-4.5,5.7-9,12.1-9
						c7.3,0,10.1,5.6,11.1,9c0.2,0.5,0.1,1-0.2,1.5C417.2,60.9,416.7,61.1,416.1,61.1z M416,59.5C416,59.5,416,59.5,416,59.5
						C416,59.5,416,59.5,416,59.5z M396.2,59.3h19.7c-1.1-3.5-3.6-7.5-9.4-7.5C401.1,51.8,397.2,55.5,396.2,59.3z"/>
				</g>
			</g>
			<g>
				<g>
					<path class="st1" d="M444.1,25.9l0.2,12.2v30.3l-0.2,12.3c0,0.7-0.6,1.3-1.3,1.3h-4.6c-0.7,0-1.3-0.6-1.3-1.3l-0.2-12.3V38.2
						l0.2-12.2c0-0.8,0.6-1.3,1.3-1.3h4.6C443.5,24.6,444.1,25.2,444.1,25.9z"/>
				</g>
				<g>
					<path class="st1" d="M442.8,83h-4.6c-1.2,0-2.2-1-2.2-2.2l-0.2-12.3l0-30.3l0.2-12.3c0-1.2,1-2.2,2.2-2.2h4.6
						c1.2,0,2.2,1,2.2,2.2l0.2,12.2l0,30.3L445,80.8C445,82,444,83,442.8,83z M438.2,25.5c-0.2,0-0.4,0.1-0.4,0.4l-0.2,12.3l0,30.3
						l0.2,12.3c0,0.2,0.2,0.4,0.4,0.4h4.6c0.2,0,0.4-0.2,0.4-0.4l0.2-12.3l0-30.3l-0.2-12.2c0-0.3-0.2-0.4-0.4-0.4H438.2z"/>
				</g>
			</g>
			<g>
				<g>
					<path class="st1" d="M467.5,36.2c0,2.6-2.3,4.7-4.9,4.7c-2.7,0-4.9-2.1-4.9-4.7c0-2.7,2.2-4.8,4.9-4.8
						C465.3,31.4,467.5,33.5,467.5,36.2z M464.9,44.3h-4.5c-0.8,0-1.4,0.6-1.4,1.4l-0.2,12.2v10.6l0.2,12.3c0,0.7,0.6,1.3,1.4,1.3
						h4.5c0.8,0,1.3-0.6,1.3-1.3l0.3-12.3V57.9l-0.3-12.2C466.2,44.9,465.7,44.3,464.9,44.3z"/>
				</g>
				<g>
					<path class="st1" d="M464.9,83h-4.5c-1.3,0-2.3-1-2.3-2.2l-0.2-12.3l0-10.6l0.2-12.3c0-1.2,1-2.3,2.3-2.3h4.5
						c1.2,0,2.2,1,2.2,2.3l0.3,12.2l0,10.6l-0.3,12.3C467.1,82,466.1,83,464.9,83z M460.3,45.2c-0.3,0-0.5,0.2-0.5,0.5l-0.2,12.3
						l0,10.5l0.2,12.3c0,0.2,0.2,0.4,0.5,0.4h4.5c0.3,0,0.4-0.2,0.4-0.4l0.3-12.3l0-10.5l-0.3-12.2c0-0.2-0.1-0.5-0.4-0.5H460.3z
						 M462.6,41.8c-3.2,0-5.8-2.5-5.8-5.6c0-3.2,2.6-5.7,5.8-5.7c3.2,0,5.8,2.6,5.8,5.7C468.4,39.2,465.8,41.8,462.6,41.8z
						 M462.6,32.3c-2.3,0-4,1.7-4,3.9c0,2.1,1.8,3.8,4,3.8c2.2,0,4-1.8,4-3.8C466.6,34.1,464.8,32.3,462.6,32.3z"/>
				</g>
			</g>
			<g>
				<g>
					<path class="st1" d="M513.6,74c0.6,0.5,0.6,1.5,0.1,2c-3.6,3.8-9,6.2-15.1,6.1c-10.7-0.1-19.3-8.4-19.3-18.8
						c0-10.5,7.5-19,19.4-19c6,0,11.9,2.8,15,6.2c0.5,0.6,0.4,1.5-0.2,2l-3.2,2.9c-0.5,0.5-1.4,0.5-2,0.1c-2.8-2.5-5.6-3.8-9.7-3.8
						c-7.1,0-11.5,4.7-11.5,11.6c0,6.9,3.9,11.5,11.6,11.5c4,0,7.2-1.5,9.9-3.7c0.5-0.5,1.4-0.4,1.9,0.1L513.6,74z"/>
				</g>
				<g>
					<path class="st1" d="M498.8,83c-0.1,0-0.2,0-0.3,0c-11.1-0.1-20.2-8.9-20.2-19.7c0-11.5,8.5-19.9,20.3-19.9
						c6.7,0,12.7,3.3,15.6,6.5l0,0.1c0.7,1,0.6,2.3-0.2,3.2l-3.2,2.9c-0.8,0.8-2.2,0.9-3.1,0.1c-2.9-2.6-5.5-3.6-9.1-3.6
						c-6.6,0-10.6,4.1-10.6,10.7c0,6.7,3.9,10.6,10.7,10.6c3.4,0,6.4-1.2,9.3-3.5c0.9-0.7,2.3-0.7,3.1,0.1l3.1,2.9
						c0.5,0.4,0.8,1,0.8,1.6c0,0.6-0.2,1.2-0.7,1.7C510.5,80.6,504.9,83,498.8,83z M498.7,45.2c-10.9,0-18.5,7.4-18.5,18.1
						c0,9.8,8.2,17.8,18.4,17.9c5.6,0.1,10.9-2.1,14.5-5.8c0.1-0.1,0.2-0.2,0.2-0.4c0-0.1,0-0.2-0.2-0.3l0,0l-3.1-2.9
						c-0.2-0.2-0.5-0.2-0.7,0c-3.2,2.7-6.6,4-10.4,4c-7.8,0-12.5-4.6-12.5-12.4c0-7.6,4.9-12.5,12.4-12.5c4.1,0,7.1,1.2,10.3,4.1
						c0.2,0.1,0.5,0.2,0.7-0.1l3.2-2.9c0.2-0.2,0.2-0.5,0.1-0.8C510.3,48.1,504.9,45.2,498.7,45.2z"/>
				</g>
			</g>
			<g>
				<g>
					<path class="st1" d="M562.9,63.2c0,10.5-8.6,18.9-19.4,18.9c-10.7,0-19.3-8.4-19.3-18.9c0-10.4,8.6-18.9,19.3-18.9
						C554.3,44.3,562.9,52.8,562.9,63.2z M531.9,63.2c0,6.3,5.2,11.4,11.6,11.4c6.4,0,11.7-5.1,11.7-11.4c0-6.3-5.2-11.3-11.7-11.3
						C537.2,51.9,531.9,56.9,531.9,63.2z"/>
				</g>
				<g>
					<path class="st1" d="M543.5,83c-11.1,0-20.2-8.9-20.2-19.8c0-10.9,9-19.8,20.2-19.8c11.2,0,20.2,8.9,20.2,19.8
						C563.8,74.1,554.7,83,543.5,83z M543.5,45.2c-10.1,0-18.4,8.1-18.4,18c0,9.9,8.2,18,18.4,18c10.2,0,18.5-8.1,18.5-18
						C562,53.3,553.7,45.2,543.5,45.2z M543.5,75.5c-6.9,0-12.5-5.5-12.5-12.3c0-6.7,5.6-12.2,12.5-12.2c6.9,0,12.6,5.5,12.6,12.2
						C556.1,70,550.5,75.5,543.5,75.5z M543.5,52.8c-5.9,0-10.7,4.7-10.7,10.4c0,5.8,4.8,10.5,10.7,10.5c5.9,0,10.8-4.7,10.8-10.5
						C554.3,57.4,549.5,52.8,543.5,52.8z"/>
				</g>
			</g>
			<g>
				<g>
					<path class="st1" d="M574,62.3c0.5-10,8.9-18,19.3-18c10.7,0,19.3,8.5,19.3,18.9s-8.6,18.9-19.3,18.9c-4.1,0-9.1-2.2-11.2-5
						c-0.2-0.2-0.4-0.1-0.4,0.1l-0.2,23c0,0.8-0.7,1.5-1.6,1.5h-4.2c-0.9,0-1.6-0.7-1.6-1.5C574.2,100.2,573.5,72.3,574,62.3z
						 M591.8,74.3c7.5,0.9,13.9-5.3,12.9-12.6c-0.7-5-4.8-9.1-9.9-9.7c-7.5-0.9-13.9,5.3-12.9,12.6
						C582.5,69.7,586.6,73.7,591.8,74.3z"/>
				</g>
				<g>
					<path class="st1" d="M580,102.6h-4.2c-1.4,0-2.5-1.1-2.5-2.4c0-0.3-0.7-28-0.2-38l0.9,0l-0.9,0c0.5-10.6,9.4-18.8,20.2-18.8
						c11.1,0,20.2,8.9,20.2,19.8c0,10.9-9,19.8-20.2,19.8c-3.7,0-8.1-1.7-10.7-4l-0.1,21.3C582.4,101.5,581.3,102.6,580,102.6z
						 M593.3,45.2c-9.9,0-17.9,7.5-18.4,17.1c-0.5,9.9,0.2,37.6,0.2,37.9c0,0.4,0.3,0.7,0.7,0.7h4.2c0.4,0,0.7-0.3,0.7-0.6l0.2-23
						c0-0.5,0.3-0.9,0.8-1c0.5-0.1,1,0,1.3,0.5c1.9,2.5,6.6,4.6,10.5,4.6c10.1,0,18.4-8.1,18.4-18C611.7,53.3,603.4,45.2,593.3,45.2
						z M581.4,77.6C581.4,77.7,581.4,77.7,581.4,77.6C581.4,77.7,581.4,77.7,581.4,77.6z M582.6,77.2L582.6,77.2
						C582.6,77.2,582.6,77.2,582.6,77.2z M593.3,75.3c-0.5,0-1.1,0-1.6-0.1c-5.5-0.7-10-5-10.7-10.5c-0.5-3.7,0.8-7.4,3.4-10
						c2.7-2.8,6.6-4.1,10.5-3.6c5.5,0.7,10,5,10.7,10.5c0.5,3.7-0.8,7.4-3.4,10C599.8,74,596.6,75.3,593.3,75.3z M593.3,52.8
						c-2.9,0-5.6,1.1-7.6,3.2c-2.3,2.3-3.3,5.4-2.9,8.5c0.7,4.7,4.4,8.4,9.2,8.9l0,0c3.4,0.4,6.7-0.7,9-3.1c2.3-2.3,3.3-5.4,2.9-8.5
						c-0.7-4.7-4.4-8.4-9.2-8.9C594.2,52.9,593.7,52.8,593.3,52.8z"/>
				</g>
			</g>
			<g>
				<g>
					<path class="st1" d="M646.4,46.3v4.5c0,0.8-0.6,1.3-1.3,1.4l-7.8,0.2v16.1L637,80.8c0,0.7-0.6,1.3-1.3,1.3h-4.5
						c-0.8,0-1.4-0.6-1.4-1.3l-0.2-12.3V52.4l-7.8-0.2c-0.8-0.1-1.3-0.6-1.3-1.3v-4.6c0-0.8,0.5-1.3,1.3-1.4l7.8-0.2v-6.5l0.2-12.2
						c0-0.8,0.6-1.3,1.4-1.3h4.5c0.7,0,1.3,0.5,1.3,1.3l0.3,12.2v6.5l7.8,0.2C645.8,45,646.4,45.5,646.4,46.3z"/>
				</g>
				<g>
					<path class="st1" d="M635.7,83h-4.5c-1.3,0-2.3-1-2.3-2.2l-0.2-12.3l0-15.2l-6.9-0.2c-1.2-0.1-2.1-1-2.1-2.2v-4.6
						c0-1.2,0.9-2.1,2.1-2.3l0.1,0l6.9-0.2v-5.6l0.2-12.3c0-1.2,1-2.2,2.3-2.2h4.5c1.2,0,2.2,1,2.2,2.2l0.3,12.2l0,5.7l7,0.2
						c1.2,0.1,2.1,1.1,2.1,2.3v4.5c0,1.2-0.9,2.1-2.1,2.3l-0.1,0l-6.9,0.2v15.2l-0.3,12.3C637.9,82,636.9,83,635.7,83z M621.8,51.3
						l8.6,0.3v16.9l0.2,12.3c0,0.2,0.2,0.4,0.5,0.4h4.5c0.2,0,0.4-0.2,0.4-0.4l0.3-12.3l0-16.9l8.6-0.3c0.2,0,0.5-0.2,0.5-0.5v-4.5
						c0-0.3-0.3-0.4-0.5-0.5l-8.6-0.3v-7.4L636.1,26c0-0.3-0.2-0.4-0.4-0.4h-4.5c-0.2,0-0.5,0.1-0.5,0.4l-0.2,12.3l0,7.4l-8.6,0.3
						c-0.2,0-0.5,0.1-0.5,0.5v4.6C621.3,51.1,621.5,51.2,621.8,51.3z"/>
				</g>
			</g>
			<g>
				<g>
					<path class="st1" d="M692.2,62c-0.1,2.1-2.4,3.8-4.6,3.8h-24c-0.5,0-0.8,0.4-0.7,0.8c1.5,5.9,6.5,8.1,11.9,8.1
						c3.1,0,6.7-1.5,9.2-3.7c0.5-0.5,1.5-0.5,2,0l3.1,3c0.6,0.5,0.6,1.5,0,2.1c-4.6,4.4-9.6,6-14.6,6c-12.1,0-21.2-9.8-19.5-21.9
						c1.4-10.6,11-16.8,21.8-15.8c8.8,0.9,15.4,9.2,15.4,15.8C692.3,60.2,692.3,61,692.2,62z M663.6,59.2c-0.2,0.5,0.2,1,0.7,1h20.1
						c0.5,0,0.9-0.5,0.7-1c-1.2-3.9-4-8.3-10.3-8.3C669,50.9,664.7,54.9,663.6,59.2z"/>
				</g>
				<g>
					<path class="st1" d="M674.7,83c-6.2,0-11.9-2.5-15.8-6.9c-3.8-4.3-5.4-10-4.6-16c1.4-10.7,11-17.7,22.8-16.5
						c9.3,1,16.2,9.6,16.2,16.6c0,0,0,0.8-0.1,1.8c-0.1,2.8-3,4.7-5.5,4.7h-23.7c1.7,6.2,7.6,7.2,11,7.2c2.8,0,6.3-1.4,8.7-3.4
						c0.9-0.8,2.4-0.8,3.3,0l3.1,3c0.5,0.4,0.7,1,0.7,1.7c0,0.7-0.3,1.3-0.8,1.7C685.6,80.9,680.5,83,674.7,83z M674.5,45.2
						c-9.7,0-17.3,6.1-18.5,15.1c-0.7,5.4,0.7,10.6,4.2,14.5c3.5,4,8.8,6.3,14.4,6.3c5.4,0,9.9-1.9,14-5.7c0.2-0.2,0.2-0.3,0.2-0.4
						c0-0.1,0-0.2-0.2-0.4l-3.2-3c-0.2-0.2-0.6-0.2-0.8,0c-2.7,2.4-6.6,3.9-9.9,3.9c-6.7,0-11.4-3.2-12.8-8.8l0-0.1
						c-0.1-0.5,0-1,0.3-1.3c0.3-0.4,0.8-0.6,1.2-0.6h24c1.7,0,3.7-1.3,3.7-3l0,0c0.1-0.9,0.1-1.7,0.1-1.7c0-6.2-6.4-14-14.6-14.9
						C676.1,45.3,675.3,45.2,674.5,45.2z M684.4,61.1h-20.1c-0.5,0-1-0.2-1.3-0.7c-0.3-0.4-0.4-1-0.2-1.5c1.2-4.5,5.7-9,12.1-9
						c7.3,0,10.1,5.6,11.1,9c0.2,0.5,0.1,1-0.2,1.5C685.4,60.9,684.9,61.1,684.4,61.1z M684.2,59.5
						C684.3,59.5,684.3,59.5,684.2,59.5C684.3,59.5,684.3,59.5,684.2,59.5z M664.5,59.3h19.7c-1.1-3.5-3.6-7.5-9.4-7.5
						C669.4,51.8,665.5,55.5,664.5,59.3z"/>
				</g>
			</g>
			<g>
				<g>
					<path class="st1" d="M727.1,51.5l-3,2.6c-0.6,0.4-1.3,0.3-1.8-0.1c-5.3-3.6-11.4-0.6-11.4,4.9l-0.1,21.6c0,0.9-0.7,1.6-1.7,1.6
						H705c-1,0-1.7-0.7-1.7-1.6l0.4-25.7c0-4-0.7-6-1-7.8c-0.2-0.7,0.5-1.4,1.3-1.4l5.2-0.8c0.6,0,1.1,0.4,1.4,0.9
						c0.2,0.7,0.2,0.8,0.2,0.8c5.4-2.4,11.9-1.3,16.3,3C727.8,50.1,727.8,50.9,727.1,51.5z"/>
				</g>
				<g>
					<path class="st1" d="M709.1,83H705c-1.5,0-2.6-1.1-2.6-2.5l0.4-25.7c0-2.8-0.4-4.6-0.7-6.1c-0.1-0.6-0.2-1.1-0.3-1.6
						c-0.1-0.6,0-1.1,0.4-1.6c0.4-0.5,1-0.8,1.7-0.8l5.3-0.8c0.9,0,1.8,0.6,2.2,1.4c5.6-2,12-0.6,16.4,3.6c0.5,0.5,0.7,1.1,0.7,1.8
						c0,0.6-0.3,1.1-0.8,1.5l-3.1,2.7c-0.9,0.6-2,0.5-2.9-0.1c-2.3-1.5-4.9-1.8-6.9-0.8c-1.9,0.9-3,2.8-3,5l-0.1,21.6
						C711.8,81.9,710.6,83,709.1,83z M704.1,46.5c-0.2,0-0.3,0.1-0.3,0.2c0,0-0.1,0.1-0.1,0.1l0,0.1c0.1,0.5,0.2,0.9,0.3,1.5
						c0.3,1.5,0.7,3.5,0.7,6.4l-0.4,25.7c0,0.4,0.3,0.7,0.8,0.7h4.1c0.5,0,0.8-0.3,0.8-0.7l0.1-21.6c0-2.9,1.5-5.3,4-6.5
						c2.7-1.4,6.1-1,8.9,0.9l0.1,0c0.2,0.1,0.4,0.2,0.6,0.1l3-2.6c0.1-0.1,0.2-0.2,0.2-0.3c0-0.1-0.1-0.3-0.2-0.4
						c-4-3.9-10.1-5-15.2-2.8l-1.3,0.6v-1.3c0-0.1-0.1-0.2-0.2-0.6c-0.1-0.2-0.3-0.3-0.5-0.3L704.1,46.5z"/>
				</g>
			</g>
		</g>
		<g>
			<g>
				<g>
					<path class="st1" d="M378.5,95.1v4.4c0,0.7-0.5,1.2-1.3,1.3l-15.6,0.2l0.1,5.7V134l-0.2,11.9c0,0.8-0.6,1.3-1.3,1.3h-4.6
						c-0.7,0-1.3-0.5-1.3-1.3L354,134v-27.2l0.1-5.7l-15.6-0.2c-0.8-0.1-1.3-0.6-1.3-1.3v-4.4c0-0.7,0.5-1.2,1.3-1.3l13.8-0.2h11.1
						l13.8,0.2C378,93.9,378.5,94.4,378.5,95.1z"/>
				</g>
				<g>
					<path class="st1" d="M360.2,148h-4.6c-1.2,0-2.2-1-2.2-2.2l-0.2-11.8l0-27.2l0.1-4.9l-14.7-0.2c-1.2-0.1-2.1-1-2.1-2.2v-4.4
						c0-1.1,0.9-2.1,2.1-2.2l0.1,0l13.8-0.2l11.1,0l13.9,0.2c1.2,0.1,2.1,1,2.1,2.2v4.4c0,1.1-0.9,2.1-2.1,2.2l-0.1,0l-14.7,0.2
						l0.1,4.8l0,27.2l-0.2,11.9C362.4,147,361.4,148,360.2,148z M338.6,99.9l16.4,0.2l-0.1,6.6V134l0.2,11.8c0,0.3,0.2,0.4,0.4,0.4
						h4.6c0.2,0,0.4-0.1,0.4-0.4l0.2-11.9l0-27.2l-0.1-6.6l16.4-0.2c0.2,0,0.5-0.2,0.5-0.4v-4.4c0-0.3-0.3-0.4-0.5-0.4l-13.7-0.2
						l-11.1,0l-13.7,0.2c-0.2,0-0.5,0.2-0.5,0.4v4.4C338.1,99.7,338.4,99.9,338.6,99.9z"/>
				</g>
			</g>
			<g>
				<g>
					<path class="st1" d="M415,128.2c0,10.5-8.5,18.9-19,18.9c-10.5,0-19-8.4-19-18.9c0-10.4,8.5-18.9,19-18.9
						C406.5,109.3,415,117.8,415,128.2z M384.5,128.2c0,6.3,5.2,11.4,11.4,11.4c6.3,0,11.5-5.1,11.5-11.4c0-6.3-5.2-11.3-11.5-11.3
						C389.7,116.9,384.5,122,384.5,128.2z"/>
				</g>
				<g>
					<path class="st1" d="M396,148c-10.9,0-19.8-8.9-19.8-19.8c0-10.9,8.9-19.8,19.8-19.8c11,0,19.9,8.9,19.9,19.8
						C415.9,139.1,406.9,148,396,148z M396,110.2c-10,0-18.1,8.1-18.1,18c0,9.9,8.1,18,18.1,18c10,0,18.1-8.1,18.1-18
						C414.1,118.3,406,110.2,396,110.2z M396,140.5c-6.8,0-12.3-5.5-12.3-12.3c0-6.7,5.5-12.2,12.3-12.2c6.8,0,12.4,5.5,12.4,12.2
						C408.3,135,402.8,140.5,396,140.5z M396,117.8c-5.8,0-10.5,4.7-10.5,10.4c0,5.8,4.7,10.5,10.5,10.5c5.8,0,10.6-4.7,10.6-10.5
						C406.5,122.5,401.8,117.8,396,117.8z"/>
				</g>
			</g>
			<g>
				<g>
					<path class="st1" d="M426.1,110.7c0-0.8,0.6-1.4,1.4-1.4h4.2c0.8,0,1.4,0.6,1.4,1.4l0.3,20.3c0,11.9,17.2,11.9,17.2,0l0.2-20.3
						c0-0.8,0.6-1.4,1.4-1.4h4.3c0.8,0,1.4,0.6,1.4,1.4l0.2,21.3L458,145c0,0.8-0.6,1.4-1.4,1.4H452c-0.7,0-1.3-0.5-1.4-1.3v-1.9
						c-1.8,2.5-4.7,3.9-8.7,3.9c-11,0-16.2-8-16.2-16.1L426.1,110.7z"/>
				</g>
				<g>
					<path class="st1" d="M441.9,148c-11.8,0-17.1-8.5-17.1-16.9l0.3-20.3c0-1.2,1-2.3,2.3-2.3h4.2c1.3,0,2.3,1,2.3,2.3l0.3,20.3
						c0,5.6,4,8.1,7.7,8.1s7.7-2.5,7.7-8.1l0.2-20.4c0-1.2,1-2.3,2.3-2.3h4.3c1.3,0,2.3,1,2.3,2.3L459,132l-0.1,13.1
						c0,1.2-1,2.3-2.3,2.3H452c-1.1,0-2-0.8-2.2-1.9C447.8,147.1,445.2,148,441.9,148z M427.5,110.2c-0.3,0-0.5,0.2-0.5,0.5l0,0
						l-0.3,20.3c0,7.5,4.7,15.2,15.3,15.2c3.6,0,6.2-1.2,8-3.5l1.6-2.2v4.6c0,0.3,0.3,0.5,0.5,0.5h4.6c0.3,0,0.5-0.2,0.5-0.5
						l0.1-13.1l-0.2-21.2c0-0.3-0.2-0.5-0.5-0.5h-4.3c-0.3,0-0.5,0.2-0.5,0.5l-0.2,20.4c0,6.4-4.8,9.8-9.5,9.8
						c-2.5,0-4.8-0.9-6.5-2.5c-1.9-1.8-3-4.3-3-7.4l-0.3-20.3c0-0.3-0.2-0.5-0.5-0.5H427.5z"/>
				</g>
			</g>
			<g>
				<g>
					<path class="st1" d="M492.9,116.5l-2.9,2.6c-0.5,0.4-1.2,0.3-1.7-0.1c-5-3.6-10.8-0.6-10.8,4.9l-0.1,21.6
						c0,0.9-0.7,1.6-1.6,1.6h-3.9c-0.9,0-1.6-0.7-1.6-1.6l0.4-25.7c0-4-0.7-6-0.9-7.8c-0.2-0.7,0.5-1.4,1.2-1.4l4.9-0.8
						c0.5,0,1.1,0.4,1.3,0.9c0.2,0.7,0.2,0.8,0.2,0.8c5.1-2.4,11.2-1.3,15.4,3C493.6,115.1,493.6,116,492.9,116.5z"/>
				</g>
				<g>
					<path class="st1" d="M475.9,148h-3.9c-1.4,0-2.5-1.1-2.5-2.5l0.4-25.7c0-2.8-0.4-4.6-0.6-6.1c-0.1-0.6-0.2-1.1-0.3-1.6
						c-0.1-0.6,0-1.1,0.4-1.6c0.4-0.5,1-0.8,1.6-0.8l5-0.8c0.9,0,1.7,0.6,2.1,1.4c5.3-2,11.4-0.6,15.5,3.6c0.5,0.5,0.7,1.1,0.6,1.8
						c0,0.6-0.3,1.1-0.8,1.5l-2.9,2.7c-0.8,0.6-2,0.5-2.7-0.1c-2.1-1.5-4.5-1.8-6.5-0.8c-1.8,0.9-2.9,2.8-2.9,5l-0.1,21.6
						C478.4,146.9,477.3,148,475.9,148z M471.1,111.5c-0.1,0-0.3,0.1-0.3,0.1c0,0-0.1,0.1-0.1,0.1l0,0.1c0.1,0.5,0.2,0.9,0.3,1.5
						c0.3,1.5,0.7,3.4,0.7,6.4l-0.4,25.7c0,0.4,0.3,0.7,0.7,0.7h3.9c0.4,0,0.7-0.3,0.7-0.7l0.1-21.6c0-2.9,1.4-5.3,3.8-6.6
						c2.6-1.3,5.7-1,8.4,1l0,0c0.1,0.1,0.4,0.2,0.6,0.1l2.8-2.6c0.1-0.1,0.2-0.2,0.2-0.3c0-0.1-0.1-0.3-0.2-0.4
						c-3.8-3.9-9.6-5-14.4-2.8l-1.3,0.6v-1.3c0-0.1-0.1-0.2-0.2-0.6c-0.1-0.2-0.3-0.3-0.4-0.4L471.1,111.5z"/>
				</g>
			</g>
			<g>
				<g>
					<path class="st1" d="M563.9,120.3c0,14.8-12.4,26.8-27.3,26.8h-15.3c-0.7,0-1.3-0.5-1.3-1.3l-0.2-11.9v-27.2l0.2-11.9
						c0-0.7,0.6-1.3,1.3-1.3h4.7h10.6C551.5,93.6,563.9,105.6,563.9,120.3z M556.2,120.3c0-10.7-8.8-19.7-19.6-19.7l-9.2-0.1
						l0.1,6.1V134l-0.1,6.1l9.2-0.1C547.4,140,556.2,131.1,556.2,120.3z"/>
				</g>
				<g>
					<path class="st1" d="M536.6,148h-15.3c-1.2,0-2.2-1-2.2-2.2l-0.2-11.8l0-27.2l0.2-11.9c0-1.2,1-2.2,2.2-2.2h15.3
						c15.5,0,28.2,12.4,28.2,27.7S552.2,148,536.6,148z M521.4,94.5c-0.2,0-0.4,0.2-0.4,0.4l-0.2,11.9l0,27.2l0.2,11.8
						c0,0.3,0.2,0.4,0.4,0.4h15.3c14.5,0,26.4-11.6,26.4-25.9s-11.8-25.9-26.4-25.9H521.4z M526.6,141l0.1-7v-27.2l-0.1-7l10.1,0.1
						c11.3,0,20.4,9.2,20.4,20.5s-9.2,20.5-20.5,20.5L526.6,141z M528.4,101.5l0.1,5.2V134l-0.1,5.2l8.3-0.1
						c10.3,0,18.7-8.4,18.7-18.8s-8.4-18.8-18.7-18.8L528.4,101.5z"/>
				</g>
			</g>
			<g>
				<g>
					<path class="st1" d="M575.8,110.7c0-0.8,0.6-1.4,1.4-1.4h4.2c0.8,0,1.4,0.6,1.4,1.4l0.3,20.3c0,11.9,17.2,11.9,17.2,0l0.2-20.3
						c0-0.8,0.6-1.4,1.4-1.4h4.3c0.8,0,1.4,0.6,1.4,1.4l0.2,21.3l-0.1,13.1c0,0.8-0.6,1.4-1.4,1.4h-4.6c-0.7,0-1.3-0.5-1.4-1.3v-1.9
						c-1.8,2.5-4.7,3.9-8.7,3.9c-11,0-16.2-8-16.2-16.1L575.8,110.7z"/>
				</g>
				<g>
					<path class="st1" d="M591.6,148c-11.8,0-17.1-8.5-17.1-16.9l0.3-20.3c0-1.2,1-2.3,2.3-2.3h4.2c1.3,0,2.3,1,2.3,2.3L584,131
						c0,5.6,4,8.1,7.7,8.1s7.7-2.5,7.7-8.1l0.2-20.4c0-1.2,1-2.3,2.3-2.3h4.3c1.3,0,2.3,1,2.3,2.3l0.2,21.2l-0.1,13.1
						c0,1.2-1,2.3-2.3,2.3h-4.6c-1.1,0-2-0.8-2.2-1.9C597.5,147.1,594.9,148,591.6,148z M577.1,110.2c-0.3,0-0.5,0.2-0.5,0.5l0,0
						l-0.3,20.3c0,7.5,4.7,15.2,15.3,15.2c3.6,0,6.2-1.2,8-3.5l1.6-2.2v4.6c0,0.3,0.3,0.5,0.5,0.5h4.6c0.3,0,0.5-0.2,0.5-0.5
						l0.1-13.1l-0.2-21.2c0-0.3-0.2-0.5-0.5-0.5h-4.3c-0.3,0-0.5,0.2-0.5,0.5l-0.2,20.4c0,6.4-4.8,9.8-9.5,9.8
						c-2.5,0-4.8-0.9-6.5-2.5c-1.9-1.8-3-4.3-3-7.4l-0.3-20.3c0-0.3-0.2-0.5-0.5-0.5H577.1z"/>
				</g>
			</g>
			<g>
				<g>
					<path class="st1" d="M619.8,93.4c0-0.8,0.8-1.5,1.6-1.5h4.1c0.8,0,1.5,0.7,1.5,1.5l0.1,20.8c0,0.2,0.3,0.3,0.5,0.2
						c2.2-2.8,7-5,11-5c10.5,0,19,8.5,19,18.9c0,10.5-8.5,18.9-19,18.9c-10.2,0-18.5-8-19-18C619.1,119.2,619.8,93.4,619.8,93.4z
						 M627.3,126.8c-0.9,7.3,5.2,13.5,12.7,12.6c5-0.6,9.1-4.7,9.7-9.7c0.9-7.3-5.2-13.5-12.7-12.6
						C632,117.7,627.9,121.7,627.3,126.8z"/>
				</g>
				<g>
					<path class="st1" d="M638.5,148c-10.6,0-19.4-8.3-19.8-18.8c-0.5-9.8,0.1-35.2,0.2-35.8c0-1.3,1.2-2.4,2.5-2.4h4.1
						c1.3,0,2.4,1.1,2.4,2.4l0.1,19.2c2.6-2.4,6.8-4.1,10.6-4.1c10.9,0,19.8,8.9,19.8,19.8C658.4,139.1,649.5,148,638.5,148z
						 M621.4,92.7c-0.4,0-0.7,0.3-0.7,0.6l0,0c0,0.3-0.7,25.9-0.2,35.7c0.4,9.6,8.4,17.1,18.1,17.1c10,0,18.1-8.1,18.1-18
						c0-9.9-8.1-18-18.1-18c-3.8,0-8.3,2-10.3,4.6l-0.1,0.1c-0.3,0.3-0.8,0.4-1.3,0.2c-0.4-0.2-0.7-0.6-0.7-1l-0.1-20.8
						c0-0.4-0.3-0.6-0.7-0.6H621.4z M628,114.1L628,114.1C628,114.1,628,114.1,628,114.1z M638.5,140.4c-3.3,0-6.4-1.3-8.7-3.6
						c-2.7-2.7-3.9-6.4-3.4-10.1c0.7-5.4,5-9.7,10.5-10.5c3.9-0.5,7.6,0.8,10.3,3.5c2.7,2.7,3.9,6.4,3.4,10.1
						c-0.7,5.4-5.1,9.8-10.5,10.5C639.6,140.3,639.1,140.4,638.5,140.4z M638.5,117.9c-0.4,0-0.9,0-1.4,0.1
						c-4.7,0.6-8.4,4.3-8.9,8.9l0,0c-0.4,3.2,0.7,6.4,2.9,8.6c2.3,2.3,5.5,3.4,8.8,3c4.6-0.6,8.4-4.3,8.9-8.9
						c0.4-3.2-0.7-6.4-2.9-8.6C643.9,118.9,641.3,117.9,638.5,117.9z"/>
				</g>
			</g>
			<g>
				<g>
					<path class="st1" d="M706.1,145.6c0,0.8-0.7,1.5-1.6,1.5h-4.1c-0.8,0-1.5-0.7-1.5-1.5l-0.1-3.4c0-0.2-0.2-0.3-0.4-0.2
						c-2.1,2.8-7,5-11,5c-10.6,0-19-8.4-19-18.9c0-10.4,8.5-18.9,19-18.9c10.2,0,18.4,8,18.9,18
						C706.8,137.3,706.1,145.6,706.1,145.6z M698.6,129.7c1-7.3-5.2-13.5-12.7-12.6c-5,0.7-9.1,4.7-9.7,9.7
						c-0.9,7.3,5.3,13.5,12.7,12.6C693.9,138.8,697.9,134.7,698.6,129.7z"/>
				</g>
				<g>
					<path class="st1" d="M704.5,148h-4.1c-1.2,0-2.3-1-2.4-2.3l0-0.1l0-1.7c-2.6,2.4-6.9,4.1-10.6,4.1c-11,0-19.9-8.9-19.9-19.8
						c0-10.9,8.9-19.8,19.9-19.8c10.6,0,19.3,8.3,19.8,18.8c0.5,9.6-0.1,17.8-0.2,18.4C707,147,705.9,148,704.5,148z M699.8,145.5
						c0,0.4,0.4,0.7,0.7,0.7h4.1c0.4,0,0.7-0.3,0.7-0.6l0-0.1c0-0.1,0.7-8.3,0.2-18.2c-0.4-9.6-8.3-17.1-18-17.1
						c-10,0-18.1,8.1-18.1,18c0,9.9,8.1,18,18.1,18c3.8,0,8.4-2.1,10.3-4.7l0.1-0.1c0.3-0.3,0.8-0.4,1.2-0.3c0.4,0.2,0.7,0.6,0.7,1
						L699.8,145.5z M697.9,142.2C697.9,142.2,697.9,142.3,697.9,142.2L697.9,142.2z M687.4,140.4c-3.3,0-6.4-1.3-8.7-3.6
						c-2.7-2.7-3.9-6.4-3.5-10.1c0.7-5.4,5-9.7,10.5-10.5c3.9-0.5,7.7,0.8,10.4,3.6c2.6,2.7,3.8,6.3,3.3,10.1
						c-0.7,5.4-5.1,9.8-10.5,10.5C688.4,140.3,687.9,140.4,687.4,140.4z M687.3,117.9c-0.4,0-0.9,0-1.4,0.1
						c-4.7,0.6-8.4,4.3-8.9,8.9c-0.4,3.2,0.7,6.4,2.9,8.6c2.3,2.3,5.5,3.4,8.8,3c4.6-0.6,8.4-4.3,8.9-8.9l0,0
						c0.4-3.2-0.6-6.3-2.8-8.6C692.8,119,690.2,117.9,687.3,117.9z"/>
				</g>
			</g>
			<g>
				<g>
					<path class="st1" d="M727.7,101.2c0,2.6-2.2,4.7-4.9,4.7c-2.7,0-4.9-2.1-4.9-4.7c0-2.7,2.2-4.8,4.9-4.8
						C725.4,96.4,727.7,98.6,727.7,101.2z M725.1,109.3h-4.5c-0.8,0-1.4,0.6-1.4,1.4l-0.2,12.2v10.6l0.2,12.3c0,0.7,0.6,1.3,1.4,1.3
						h4.5c0.8,0,1.3-0.6,1.3-1.3l0.3-12.3v-10.6l-0.3-12.2C726.4,109.9,725.8,109.3,725.1,109.3z"/>
				</g>
				<g>
					<path class="st1" d="M725.1,148h-4.5c-1.2,0-2.3-1-2.3-2.2l-0.2-12.3l0-10.6l0.2-12.3c0-1.2,1-2.2,2.3-2.2h4.5
						c1.2,0,2.2,1,2.2,2.3l0.3,12.2l0,10.6l-0.3,12.3C727.3,147,726.3,148,725.1,148z M720.6,110.2c-0.3,0-0.5,0.2-0.5,0.5
						l-0.2,12.3l0,10.5l0.2,12.3c0,0.2,0.2,0.4,0.5,0.4h4.5c0.3,0,0.4-0.2,0.4-0.4l0.3-12.3l0-10.5l-0.3-12.2c0-0.2-0.1-0.5-0.4-0.5
						H720.6z M722.8,106.9c-3.2,0-5.7-2.5-5.7-5.6c0-3.1,2.6-5.7,5.7-5.7c3.2,0,5.7,2.6,5.7,5.7
						C728.6,104.3,725.9,106.9,722.8,106.9z M722.8,97.3c-2.2,0-4,1.7-4,3.9c0,2.1,1.8,3.9,4,3.9c2.1,0,4-1.8,4-3.9
						C726.8,99.1,725,97.3,722.8,97.3z"/>
				</g>
			</g>
		</g>
		<g>
			<g>
				<g>
					<path class="st1" d="M515.1,158.5h10.1v1.7h-8.3v5.3h8.2v1.7h-8.2v6.7h8.2v1.7h-10V158.5z"/>
				</g>
			</g>
			<g>
				<g>
					<path class="st1" d="M527.9,163h1.7v2.3c0.7-0.9,1.4-1.5,2.2-1.9c0.8-0.4,1.7-0.6,2.6-0.6c1,0,1.8,0.2,2.6,0.7
						c0.8,0.5,1.3,1.1,1.7,1.9c0.4,0.8,0.5,2.1,0.5,3.8v6.5h-1.7v-6c0-1.5-0.1-2.4-0.2-2.9c-0.2-0.8-0.6-1.5-1.1-1.9
						c-0.5-0.4-1.3-0.6-2.1-0.6c-1,0-1.9,0.3-2.7,1c-0.8,0.6-1.3,1.5-1.6,2.4c-0.2,0.6-0.2,1.8-0.2,3.4v4.6h-1.7V163z"/>
				</g>
			</g>
			<g>
				<g>
					<path class="st1" d="M542.6,163h1.7v14.5c0,1.1-0.2,1.8-0.6,2.3c-0.4,0.5-0.9,0.7-1.6,0.7c-0.6,0-1.2-0.1-1.9-0.4v-1.5
						c0.4,0.2,0.8,0.3,1.2,0.3c0.5,0,0.8-0.2,1-0.5c0.1-0.2,0.2-0.7,0.2-1.4V163z M543.5,157.8c0.4,0,0.7,0.1,1,0.4
						c0.3,0.3,0.4,0.6,0.4,0.9c0,0.4-0.1,0.7-0.4,0.9c-0.3,0.3-0.6,0.4-1,0.4c-0.4,0-0.7-0.1-1-0.4c-0.3-0.3-0.4-0.6-0.4-0.9
						c0-0.4,0.1-0.7,0.4-0.9C542.8,157.9,543.1,157.8,543.5,157.8z"/>
				</g>
			</g>
			<g>
				<g>
					<path class="st1" d="M553.9,162.6c2,0,3.7,0.7,5,2.1c1.2,1.3,1.8,2.8,1.8,4.5c0,1.8-0.6,3.3-1.9,4.6c-1.3,1.3-2.9,2-4.9,2
						c-2,0-3.6-0.7-4.9-2c-1.3-1.3-1.9-2.9-1.9-4.6c0-1.7,0.6-3.3,1.8-4.5C550.3,163.3,551.9,162.6,553.9,162.6z M553.9,164.2
						c-1.4,0-2.6,0.5-3.6,1.5c-1,1-1.5,2.2-1.5,3.6c0,0.9,0.2,1.8,0.7,2.5c0.5,0.8,1.1,1.4,1.8,1.8c0.8,0.4,1.6,0.6,2.6,0.6
						s1.8-0.2,2.6-0.6c0.8-0.4,1.4-1,1.8-1.8c0.5-0.8,0.7-1.6,0.7-2.5c0-1.4-0.5-2.6-1.5-3.6C556.5,164.7,555.3,164.2,553.9,164.2z"
						/>
				</g>
			</g>
			<g>
				<g>
					<path class="st1" d="M562.4,163h1.8l4.5,9.7l4.3-9.7h1.8l-7.7,17.2h-1.8l2.5-5.6L562.4,163z"/>
				</g>
			</g>
			<g>
				<g>
					<path class="st1" d="M585.1,158.3h1.7v4.7h2.6v1.4h-2.6v11.2h-1.7v-11.2h-2.3V163h2.3V158.3z"/>
				</g>
			</g>
			<g>
				<g>
					<path class="st1" d="M591.9,158.1h1.7v7.1c0.7-0.9,1.4-1.5,2.2-1.9s1.7-0.6,2.6-0.6c1,0,1.8,0.2,2.6,0.7
						c0.8,0.5,1.3,1.1,1.7,1.9c0.4,0.8,0.5,2.1,0.5,3.8v6.5h-1.7v-6c0-1.5-0.1-2.4-0.2-2.9c-0.2-0.8-0.6-1.5-1.1-1.9
						c-0.5-0.4-1.3-0.6-2.1-0.6c-1,0-1.9,0.3-2.7,1c-0.8,0.6-1.3,1.5-1.6,2.4c-0.2,0.6-0.2,1.8-0.2,3.4v4.6h-1.7V158.1z"/>
				</g>
			</g>
			<g>
				<g>
					<path class="st1" d="M617.8,171.4l1.4,0.7c-0.5,0.9-1,1.6-1.6,2.1c-0.6,0.5-1.3,1-2,1.2c-0.8,0.3-1.6,0.4-2.6,0.4
						c-2.1,0-3.8-0.7-5-2c-1.2-1.3-1.8-2.9-1.8-4.6c0-1.6,0.5-3,1.5-4.3c1.3-1.6,3-2.4,5.1-2.4c2.2,0,4,0.8,5.3,2.4
						c0.9,1.1,1.4,2.6,1.4,4.3h-11.7c0,1.5,0.5,2.7,1.4,3.6c0.9,0.9,2.1,1.4,3.5,1.4c0.7,0,1.3-0.1,1.9-0.3c0.6-0.2,1.2-0.5,1.6-0.9
						C616.8,172.8,617.3,172.2,617.8,171.4z M617.8,168c-0.2-0.9-0.5-1.6-1-2.1c-0.4-0.5-1-0.9-1.7-1.2s-1.4-0.5-2.2-0.5
						c-1.3,0-2.4,0.4-3.3,1.2c-0.7,0.6-1.2,1.4-1.5,2.6H617.8z"/>
				</g>
			</g>
			<g>
				<g>
					<path class="st1" d="M629.5,163h1.7v2.2c0.6-0.8,1.2-1.4,1.8-1.8c0.8-0.5,1.7-0.7,2.7-0.7c0.6,0,1.2,0.1,1.8,0.4
						c0.6,0.2,1,0.6,1.4,1c0.4,0.4,0.7,1,0.9,1.7c0.6-1,1.2-1.7,2.1-2.3c0.8-0.5,1.7-0.8,2.7-0.8c0.9,0,1.7,0.2,2.4,0.7
						c0.7,0.4,1.2,1.1,1.5,1.8c0.3,0.8,0.5,2,0.5,3.5v6.9h-1.7v-6.9c0-1.4-0.1-2.3-0.3-2.8s-0.5-0.9-1-1.2c-0.5-0.3-1.1-0.5-1.7-0.5
						c-0.8,0-1.5,0.2-2.2,0.7c-0.7,0.5-1.2,1.1-1.5,1.9c-0.3,0.8-0.5,2.1-0.5,3.9v4.9h-1.7v-6.4c0-1.5-0.1-2.6-0.3-3.1s-0.5-1-1-1.3
						c-0.5-0.3-1.1-0.5-1.7-0.5c-0.8,0-1.5,0.2-2.2,0.7c-0.7,0.5-1.2,1.1-1.5,1.8c-0.3,0.8-0.5,1.9-0.5,3.5v5.3h-1.7V163z"/>
				</g>
			</g>
			<g>
				<g>
					<path class="st1" d="M658.6,162.6c2,0,3.7,0.7,5,2.1c1.2,1.3,1.8,2.8,1.8,4.5c0,1.8-0.6,3.3-1.9,4.6c-1.3,1.3-2.9,2-4.9,2
						c-2,0-3.6-0.7-4.9-2c-1.3-1.3-1.9-2.9-1.9-4.6c0-1.7,0.6-3.3,1.8-4.5C654.9,163.3,656.5,162.6,658.6,162.6z M658.5,164.2
						c-1.4,0-2.6,0.5-3.6,1.5c-1,1-1.5,2.2-1.5,3.6c0,0.9,0.2,1.8,0.7,2.5c0.5,0.8,1.1,1.4,1.8,1.8c0.8,0.4,1.6,0.6,2.6,0.6
						s1.8-0.2,2.6-0.6c0.8-0.4,1.4-1,1.8-1.8c0.5-0.8,0.7-1.6,0.7-2.5c0-1.4-0.5-2.6-1.5-3.6C661.1,164.7,659.9,164.2,658.5,164.2z"
						/>
				</g>
			</g>
			<g>
				<g>
					<path class="st1" d="M668.4,163h1.7v2.2c0.6-0.8,1.2-1.4,1.8-1.8c0.8-0.5,1.7-0.7,2.7-0.7c0.6,0,1.2,0.1,1.8,0.4
						c0.6,0.2,1,0.6,1.4,1c0.4,0.4,0.7,1,0.9,1.7c0.6-1,1.2-1.7,2.1-2.3c0.8-0.5,1.7-0.8,2.7-0.8c0.9,0,1.7,0.2,2.4,0.7
						c0.7,0.4,1.2,1.1,1.5,1.8c0.3,0.8,0.5,2,0.5,3.5v6.9h-1.7v-6.9c0-1.4-0.1-2.3-0.3-2.8s-0.5-0.9-1-1.2c-0.5-0.3-1.1-0.5-1.7-0.5
						c-0.8,0-1.5,0.2-2.2,0.7c-0.7,0.5-1.2,1.1-1.5,1.9c-0.3,0.8-0.5,2.1-0.5,3.9v4.9h-1.7v-6.4c0-1.5-0.1-2.6-0.3-3.1s-0.5-1-1-1.3
						c-0.5-0.3-1.1-0.5-1.7-0.5c-0.8,0-1.5,0.2-2.2,0.7c-0.7,0.5-1.2,1.1-1.5,1.8c-0.3,0.8-0.5,1.9-0.5,3.5v5.3h-1.7V163z"/>
				</g>
			</g>
			<g>
				<g>
					<path class="st1" d="M702.3,171.4l1.4,0.7c-0.5,0.9-1,1.6-1.6,2.1c-0.6,0.5-1.3,1-2,1.2c-0.8,0.3-1.6,0.4-2.6,0.4
						c-2.1,0-3.8-0.7-5-2c-1.2-1.3-1.8-2.9-1.8-4.6c0-1.6,0.5-3,1.5-4.3c1.3-1.6,3-2.4,5.1-2.4c2.2,0,4,0.8,5.3,2.4
						c0.9,1.1,1.4,2.6,1.4,4.3h-11.7c0,1.5,0.5,2.7,1.4,3.6s2.1,1.4,3.5,1.4c0.7,0,1.3-0.1,1.9-0.3c0.6-0.2,1.2-0.5,1.6-0.9
						C701.3,172.8,701.7,172.2,702.3,171.4z M702.3,168c-0.2-0.9-0.5-1.6-1-2.1c-0.4-0.5-1-0.9-1.7-1.2s-1.4-0.5-2.2-0.5
						c-1.3,0-2.4,0.4-3.3,1.2c-0.7,0.6-1.2,1.4-1.5,2.6H702.3z"/>
				</g>
			</g>
			<g>
				<g>
					<path class="st1" d="M707.2,163h1.7v2.3c0.7-0.9,1.4-1.5,2.2-1.9s1.7-0.6,2.6-0.6c1,0,1.8,0.2,2.6,0.7c0.8,0.5,1.3,1.1,1.7,1.9
						c0.4,0.8,0.5,2.1,0.5,3.8v6.5h-1.7v-6c0-1.5-0.1-2.4-0.2-2.9c-0.2-0.8-0.6-1.5-1.1-1.9c-0.5-0.4-1.3-0.6-2.1-0.6
						c-1,0-1.9,0.3-2.7,1c-0.8,0.6-1.3,1.5-1.6,2.4c-0.2,0.6-0.2,1.8-0.2,3.4v4.6h-1.7V163z"/>
				</g>
			</g>
			<g>
				<g>
					<path class="st1" d="M723.6,158.3h1.7v4.7h2.6v1.4h-2.6v11.2h-1.7v-11.2h-2.3V163h2.3V158.3z"/>
				</g>
			</g>
		</g>
		<g>
			<g>
				<g>
					<rect x="336" y="162.9" class="st1" width="170.5" height="12.7"/>
				</g>
			</g>
		</g>
	</g>
</g>
</svg>
