<?xml version="1.0" encoding="utf-8"?>
<!-- Generator: Adobe Illustrator 24.1.1, SVG Export Plug-In . SVG Version: 6.00 Build 0)  -->
<svg version="1.1" id="Layer_1" xmlns="http://www.w3.org/2000/svg" xmlns:xlink="http://www.w3.org/1999/xlink" x="0px" y="0px"
	 viewBox="0 0 20.6 12" style="enable-background:new 0 0 20.6 12;" xml:space="preserve">
<style type="text/css">
	.st0{clip-path:url(#SVGID_2_);fill:#FFFFFF;}
	.st1{clip-path:url(#SVGID_2_);fill:#BD0034;}
	.st2{clip-path:url(#SVGID_2_);fill:#1A237B;}
</style>
<g id="UNITED_KINGDOM_2_">
	<g>
		<g>
			<defs>
				<rect id="SVGID_1_" x="0" y="0" width="20.6" height="12"/>
			</defs>
			<clipPath id="SVGID_2_">
				<use xlink:href="#SVGID_1_"  style="overflow:visible;"/>
			</clipPath>
			<rect x="0" y="0" class="st0" width="20.6" height="12"/>
			<polygon class="st1" points="13.8,4.3 20.6,0.5 20.6,0 20.1,0 12.4,4.3 			"/>
			<polygon class="st1" points="13.5,7.9 20.6,11.9 20.6,11.1 14.9,7.9 			"/>
			<polygon class="st1" points="0,0.9 6.1,4.3 7.5,4.3 0,0.1 			"/>
			<polygon class="st1" points="7.2,7.9 0,11.9 0,12 1.3,12 8.6,7.9 			"/>
			<polygon class="st2" points="19.2,0 12,0 12,4 			"/>
			<polygon class="st2" points="8.8,0 1.6,0 8.8,4 			"/>
			<polygon class="st2" points="20.6,4.3 20.6,1.6 15.7,4.3 			"/>
			<polygon class="st2" points="20.6,10.6 20.6,7.9 15.7,7.9 			"/>
			<polygon class="st2" points="2,12 8.8,12 8.8,8.2 			"/>
			<polygon class="st2" points="12,12 18.8,12 12,8.2 			"/>
			<polygon class="st2" points="0,7.9 0,10.8 5.1,7.9 			"/>
			<polygon class="st2" points="0,4.3 5.1,4.3 0,1.5 			"/>
			<polygon class="st1" points="9.4,0 9.4,5.1 0,5.1 0,7.2 9.4,7.2 9.4,12 11.3,12 11.3,7.2 20.6,7.2 20.6,5.1 11.3,5.1 11.3,0 			
				"/>
		</g>
	</g>
</g>
</svg>
